<mxfile host="app.diagrams.net" modified="2022-02-23T01:19:06.842Z" agent="5.0 (Windows NT 10.0; Win64; x64) AppleWebKit/537.36 (KHTML, like Gecko) Chrome/98.0.4758.102 Safari/537.36" etag="W9WYHj1emM9iK8Hxujh0" version="16.6.1" type="github">
  <diagram id="PR5A2xKl6tRtxUj8g2oj" name="Page-1">
    <mxGraphModel dx="1437" dy="737" grid="1" gridSize="10" guides="1" tooltips="1" connect="1" arrows="1" fold="1" page="1" pageScale="1" pageWidth="827" pageHeight="1169" math="0" shadow="0">
      <root>
        <mxCell id="0" />
        <mxCell id="1" parent="0" />
        <mxCell id="ZmArUTkUeATs0R8kw7iK-19" value="" style="rounded=0;whiteSpace=wrap;html=1;fillColor=#fff2cc;strokeColor=#d6b656;" parent="1" vertex="1">
          <mxGeometry x="4.5" y="250" width="940" height="380" as="geometry" />
        </mxCell>
        <mxCell id="ZmArUTkUeATs0R8kw7iK-20" value="" style="rounded=0;whiteSpace=wrap;html=1;fillColor=#f5f5f5;strokeColor=#666666;fontColor=#333333;" parent="1" vertex="1">
          <mxGeometry x="4" y="30" width="940" height="220" as="geometry" />
        </mxCell>
        <mxCell id="4oT8NY6XmGWX67W5ZXdR-24" value="" style="rounded=0;whiteSpace=wrap;html=1;fillColor=#d5e8d4;strokeColor=#82b366;" parent="1" vertex="1">
          <mxGeometry x="4.5" y="630" width="940" height="290" as="geometry" />
        </mxCell>
        <mxCell id="4oT8NY6XmGWX67W5ZXdR-11" value="" style="endArrow=classic;html=1;rounded=0;fontColor=#FF142C;labelBackgroundColor=#FF142C;strokeColor=#000000;strokeWidth=2;exitX=0.449;exitY=1.081;exitDx=0;exitDy=0;exitPerimeter=0;" parent="1" source="4oT8NY6XmGWX67W5ZXdR-20" edge="1" target="4oT8NY6XmGWX67W5ZXdR-17">
          <mxGeometry width="50" height="50" relative="1" as="geometry">
            <mxPoint x="130" y="467.05999999999995" as="sourcePoint" />
            <mxPoint x="169" y="570" as="targetPoint" />
          </mxGeometry>
        </mxCell>
        <mxCell id="4oT8NY6XmGWX67W5ZXdR-16" value="&lt;font color=&quot;#000000&quot; style=&quot;font-size: 14px&quot;&gt;&lt;b&gt;Client&lt;/b&gt;&lt;/font&gt;" style="image;html=1;image=img/lib/clip_art/computers/Database_128x128.png;fontColor=#FF142C;" parent="1" vertex="1">
          <mxGeometry x="310" y="710" width="80" height="80" as="geometry" />
        </mxCell>
        <mxCell id="4oT8NY6XmGWX67W5ZXdR-17" value="&lt;font color=&quot;#000000&quot; style=&quot;font-size: 14px&quot;&gt;&lt;b&gt;Product&lt;/b&gt;&lt;/font&gt;" style="image;html=1;image=img/lib/clip_art/computers/Database_128x128.png;fontColor=#FF142C;" parent="1" vertex="1">
          <mxGeometry x="134.59" y="710" width="80" height="80" as="geometry" />
        </mxCell>
        <mxCell id="4oT8NY6XmGWX67W5ZXdR-18" value="&lt;font color=&quot;#000000&quot; size=&quot;1&quot;&gt;&lt;b style=&quot;font-size: 14px&quot;&gt;Movements&lt;/b&gt;&lt;/font&gt;" style="image;html=1;image=img/lib/clip_art/computers/Database_128x128.png;fontColor=#FF142C;" parent="1" vertex="1">
          <mxGeometry x="779" y="710" width="80" height="80" as="geometry" />
        </mxCell>
        <mxCell id="4oT8NY6XmGWX67W5ZXdR-20" value="&lt;b&gt;&lt;font style=&quot;font-size: 14px&quot;&gt;Product&lt;/font&gt;&lt;/b&gt;" style="aspect=fixed;html=1;points=[];align=center;image;fontSize=12;image=img/lib/azure2/ai_machine_learning/Cognitive_Services.svg;fontColor=#000000;" parent="1" vertex="1">
          <mxGeometry x="124.00000000000001" y="482" width="109.17" height="77.06" as="geometry" />
        </mxCell>
        <mxCell id="4oT8NY6XmGWX67W5ZXdR-21" value="&lt;font style=&quot;font-size: 14px&quot;&gt;&lt;b&gt;Movements&lt;/b&gt;&lt;/font&gt;" style="aspect=fixed;html=1;points=[];align=center;image;fontSize=12;image=img/lib/azure2/ai_machine_learning/Cognitive_Services.svg;fontColor=#000000;" parent="1" vertex="1">
          <mxGeometry x="765.13" y="498" width="107.75" height="76.06" as="geometry" />
        </mxCell>
        <mxCell id="ZmArUTkUeATs0R8kw7iK-2" value="&lt;font color=&quot;#000000&quot; style=&quot;font-size: 14px&quot;&gt;&lt;b&gt;Asignature&lt;/b&gt;&lt;/font&gt;" style="image;html=1;image=img/lib/clip_art/computers/Database_128x128.png;fontColor=#FF142C;" parent="1" vertex="1">
          <mxGeometry x="594.58" y="710" width="80" height="80" as="geometry" />
        </mxCell>
        <mxCell id="ZmArUTkUeATs0R8kw7iK-4" value="" style="endArrow=classic;html=1;rounded=0;fontColor=#FF142C;labelBackgroundColor=#FF142C;strokeColor=#000000;strokeWidth=2;" parent="1" edge="1" target="4oT8NY6XmGWX67W5ZXdR-16" source="4oT8NY6XmGWX67W5ZXdR-19">
          <mxGeometry width="50" height="50" relative="1" as="geometry">
            <mxPoint x="350" y="570" as="sourcePoint" />
            <mxPoint x="359.99999999999994" y="580" as="targetPoint" />
          </mxGeometry>
        </mxCell>
        <mxCell id="ZmArUTkUeATs0R8kw7iK-5" value="" style="endArrow=classic;html=1;rounded=0;fontColor=#FF142C;labelBackgroundColor=#FF142C;strokeColor=#000000;strokeWidth=2;entryX=0.5;entryY=0;entryDx=0;entryDy=0;" parent="1" source="ZmArUTkUeATs0R8kw7iK-3" edge="1" target="ZmArUTkUeATs0R8kw7iK-2">
          <mxGeometry width="50" height="50" relative="1" as="geometry">
            <mxPoint x="619" y="530" as="sourcePoint" />
            <mxPoint x="635" y="580" as="targetPoint" />
          </mxGeometry>
        </mxCell>
        <mxCell id="ZmArUTkUeATs0R8kw7iK-3" value="&lt;font style=&quot;font-size: 14px&quot;&gt;&lt;b&gt;Asignature&lt;/b&gt;&lt;/font&gt;" style="aspect=fixed;html=1;points=[];align=center;image;fontSize=12;image=img/lib/azure2/ai_machine_learning/Cognitive_Services.svg;fontColor=#000000;" parent="1" vertex="1">
          <mxGeometry x="580" y="489.99999999999994" width="109.17" height="77.06" as="geometry" />
        </mxCell>
        <mxCell id="ZmArUTkUeATs0R8kw7iK-6" value="" style="endArrow=classic;html=1;rounded=0;fontColor=#FF142C;labelBackgroundColor=#FF142C;strokeColor=#000000;strokeWidth=2;entryX=0.5;entryY=0;entryDx=0;entryDy=0;" parent="1" edge="1" target="4oT8NY6XmGWX67W5ZXdR-18" source="4oT8NY6XmGWX67W5ZXdR-21">
          <mxGeometry width="50" height="50" relative="1" as="geometry">
            <mxPoint x="827.0000000000001" y="487.05999999999995" as="sourcePoint" />
            <mxPoint x="827.0000000000001" y="579.9999999999999" as="targetPoint" />
          </mxGeometry>
        </mxCell>
        <mxCell id="ZmArUTkUeATs0R8kw7iK-17" value="GitHub" style="dashed=0;outlineConnect=0;html=1;align=center;labelPosition=center;verticalLabelPosition=bottom;verticalAlign=top;shape=mxgraph.weblogos.github;fontSize=14;fontStyle=1" parent="1" vertex="1">
          <mxGeometry x="420" y="70" width="109" height="104" as="geometry" />
        </mxCell>
        <mxCell id="ZmArUTkUeATs0R8kw7iK-18" value="" style="endArrow=classic;html=1;rounded=0;fontColor=#FF142C;labelBackgroundColor=#FF142C;strokeColor=#000033;strokeWidth=3;" parent="1" source="ZmArUTkUeATs0R8kw7iK-17" target="4oT8NY6XmGWX67W5ZXdR-22" edge="1">
          <mxGeometry width="50" height="50" relative="1" as="geometry">
            <mxPoint x="384.59000000000015" y="326.14924234900775" as="sourcePoint" />
            <mxPoint x="194.59000000000015" y="412.30760837181583" as="targetPoint" />
          </mxGeometry>
        </mxCell>
        <mxCell id="ZmArUTkUeATs0R8kw7iK-21" value="&lt;font style=&quot;font-size: 14px&quot;&gt;&lt;b&gt;UI&lt;/b&gt;&lt;/font&gt;" style="aspect=fixed;perimeter=ellipsePerimeter;html=1;align=center;shadow=0;dashed=0;spacingTop=3;image;image=img/lib/active_directory/home_page.svg;fillColor=#95F5F5;" parent="1" vertex="1">
          <mxGeometry x="699" y="50.75" width="160" height="144" as="geometry" />
        </mxCell>
        <mxCell id="ZmArUTkUeATs0R8kw7iK-23" value="" style="endArrow=classic;html=1;rounded=0;fontColor=#FF142C;labelBackgroundColor=#FF142C;strokeColor=#000033;strokeWidth=3;exitX=0;exitY=0.5;exitDx=0;exitDy=0;" parent="1" source="ZmArUTkUeATs0R8kw7iK-21" target="ZmArUTkUeATs0R8kw7iK-17" edge="1">
          <mxGeometry width="50" height="50" relative="1" as="geometry">
            <mxPoint x="290" y="204.3160899836489" as="sourcePoint" />
            <mxPoint x="384.59000000000015" y="271.95699535840504" as="targetPoint" />
          </mxGeometry>
        </mxCell>
        <mxCell id="ZmArUTkUeATs0R8kw7iK-27" value="Microservicios" style="ellipse;whiteSpace=wrap;html=1;align=center;newEdgeStyle={&quot;edgeStyle&quot;:&quot;entityRelationEdgeStyle&quot;,&quot;startArrow&quot;:&quot;none&quot;,&quot;endArrow&quot;:&quot;none&quot;,&quot;segment&quot;:10,&quot;curved&quot;:1};treeFolding=1;treeMoving=1;fontSize=14;fillColor=#FFFFFF;fontStyle=1" parent="1" vertex="1">
          <mxGeometry x="10" y="260" width="110" height="50" as="geometry" />
        </mxCell>
        <mxCell id="ZmArUTkUeATs0R8kw7iK-29" value="Repositorio" style="ellipse;whiteSpace=wrap;html=1;align=center;newEdgeStyle={&quot;edgeStyle&quot;:&quot;entityRelationEdgeStyle&quot;,&quot;startArrow&quot;:&quot;none&quot;,&quot;endArrow&quot;:&quot;none&quot;,&quot;segment&quot;:10,&quot;curved&quot;:1};treeFolding=1;treeMoving=1;fontSize=14;fillColor=#FFFFFF;fontStyle=1" parent="1" vertex="1">
          <mxGeometry x="10" y="50.75" width="110" height="50" as="geometry" />
        </mxCell>
        <mxCell id="pUQXN4pgV7F81kbBFM6u-9" value="" style="verticalLabelPosition=bottom;html=1;verticalAlign=top;align=center;strokeColor=none;fillColor=#00BEF2;shape=mxgraph.azure.git_repository;" parent="1" vertex="1">
          <mxGeometry x="850" y="260" width="70" height="70" as="geometry" />
        </mxCell>
        <mxCell id="pUQXN4pgV7F81kbBFM6u-18" value="" style="shape=image;verticalLabelPosition=bottom;labelBackgroundColor=default;verticalAlign=top;aspect=fixed;imageAspect=0;image=https://assets-global.website-files.com/5f1c75e63b2f950eb473d3e4/603c5eb831820c3ce6a8f057_603a1586fa052d17fc2a6929_MongoDBAtlas.png;" parent="1" vertex="1">
          <mxGeometry x="20" y="650" width="90" height="90" as="geometry" />
        </mxCell>
        <mxCell id="mP08lCi9YoGexR1DfaWp-1" value="" style="sketch=0;aspect=fixed;html=1;points=[];align=center;image;fontSize=12;image=img/lib/mscae/Docker.svg;" parent="1" vertex="1">
          <mxGeometry x="110" y="461.81" width="39.59" height="32.46" as="geometry" />
        </mxCell>
        <mxCell id="mP08lCi9YoGexR1DfaWp-6" value="" style="sketch=0;aspect=fixed;html=1;points=[];align=center;image;fontSize=12;image=img/lib/mscae/Docker.svg;" parent="1" vertex="1">
          <mxGeometry x="740" y="480" width="44" height="36.08" as="geometry" />
        </mxCell>
        <mxCell id="4oT8NY6XmGWX67W5ZXdR-22" value="&lt;font style=&quot;font-size: 14px&quot;&gt;&lt;b&gt;ConfigServer&lt;/b&gt;&lt;/font&gt;" style="aspect=fixed;html=1;points=[];align=center;image;fontSize=12;image=img/lib/azure2/app_services/API_Management_Services.svg;fontColor=#000000;" parent="1" vertex="1">
          <mxGeometry x="570" y="268.41999999999996" width="84.37" height="77.88" as="geometry" />
        </mxCell>
        <mxCell id="4oT8NY6XmGWX67W5ZXdR-19" value="&lt;font style=&quot;font-size: 14px&quot;&gt;&lt;b&gt;Client&lt;/b&gt;&lt;/font&gt;" style="aspect=fixed;html=1;points=[];align=center;image;fontSize=12;image=img/lib/azure2/ai_machine_learning/Cognitive_Services.svg;fontColor=#000000;" parent="1" vertex="1">
          <mxGeometry x="295.41999999999996" y="482" width="109.17" height="77.06" as="geometry" />
        </mxCell>
        <mxCell id="mP08lCi9YoGexR1DfaWp-4" value="" style="sketch=0;aspect=fixed;html=1;points=[];align=center;image;fontSize=12;image=img/lib/mscae/Docker.svg;" parent="1" vertex="1">
          <mxGeometry x="280" y="461.47" width="40" height="32.8" as="geometry" />
        </mxCell>
        <mxCell id="mP08lCi9YoGexR1DfaWp-8" value="" style="sketch=0;aspect=fixed;html=1;points=[];align=center;image;fontSize=12;image=img/lib/mscae/Docker.svg;" parent="1" vertex="1">
          <mxGeometry x="510" y="268.42" width="50" height="41" as="geometry" />
        </mxCell>
        <mxCell id="Ytkddh6fNgV7wzpWeuov-2" style="edgeStyle=orthogonalEdgeStyle;rounded=0;orthogonalLoop=1;jettySize=auto;html=1;" edge="1" parent="1" source="Ytkddh6fNgV7wzpWeuov-1" target="ZmArUTkUeATs0R8kw7iK-19">
          <mxGeometry relative="1" as="geometry" />
        </mxCell>
        <mxCell id="Ytkddh6fNgV7wzpWeuov-1" value="" style="sketch=0;aspect=fixed;html=1;points=[];align=center;image;fontSize=12;image=img/lib/mscae/Virtual_Machine_2.svg;" vertex="1" parent="1">
          <mxGeometry x="1100" y="346.29999999999995" width="113.55" height="104.47" as="geometry" />
        </mxCell>
        <mxCell id="Ytkddh6fNgV7wzpWeuov-20" style="edgeStyle=orthogonalEdgeStyle;rounded=0;orthogonalLoop=1;jettySize=auto;html=1;" edge="1" parent="1" source="Ytkddh6fNgV7wzpWeuov-3" target="4oT8NY6XmGWX67W5ZXdR-22">
          <mxGeometry relative="1" as="geometry" />
        </mxCell>
        <mxCell id="Ytkddh6fNgV7wzpWeuov-3" value="" style="outlineConnect=0;dashed=0;verticalLabelPosition=bottom;verticalAlign=top;align=center;html=1;shape=mxgraph.aws3.api_gateway;fillColor=#D9A741;gradientColor=none;" vertex="1" parent="1">
          <mxGeometry x="310" y="290" width="76.5" height="93" as="geometry" />
        </mxCell>
        <mxCell id="Ytkddh6fNgV7wzpWeuov-6" value="&lt;font style=&quot;font-size: 14px&quot;&gt;&lt;b&gt;Movements&lt;/b&gt;&lt;/font&gt;" style="aspect=fixed;html=1;points=[];align=center;image;fontSize=12;image=img/lib/azure2/ai_machine_learning/Cognitive_Services.svg;fontColor=#000000;" vertex="1" parent="1">
          <mxGeometry x="765.13" y="498" width="107.75" height="76.06" as="geometry" />
        </mxCell>
        <mxCell id="Ytkddh6fNgV7wzpWeuov-7" value="" style="sketch=0;aspect=fixed;html=1;points=[];align=center;image;fontSize=12;image=img/lib/mscae/Docker.svg;" vertex="1" parent="1">
          <mxGeometry x="560" y="470" width="39.58" height="32.46" as="geometry" />
        </mxCell>
        <mxCell id="Ytkddh6fNgV7wzpWeuov-8" value="&lt;font style=&quot;font-size: 14px&quot;&gt;&lt;b&gt;Asignature&lt;/b&gt;&lt;/font&gt;" style="aspect=fixed;html=1;points=[];align=center;image;fontSize=12;image=img/lib/azure2/ai_machine_learning/Cognitive_Services.svg;fontColor=#000000;" vertex="1" parent="1">
          <mxGeometry x="580" y="489.99999999999994" width="109.17" height="77.06" as="geometry" />
        </mxCell>
        <mxCell id="Ytkddh6fNgV7wzpWeuov-16" value="" style="endArrow=classic;html=1;rounded=0;" edge="1" parent="1" target="Ytkddh6fNgV7wzpWeuov-3">
          <mxGeometry width="50" height="50" relative="1" as="geometry">
            <mxPoint x="183.17000000000002" y="480" as="sourcePoint" />
            <mxPoint x="233.17000000000002" y="430" as="targetPoint" />
          </mxGeometry>
        </mxCell>
        <mxCell id="Ytkddh6fNgV7wzpWeuov-17" value="" style="endArrow=classic;html=1;rounded=0;" edge="1" parent="1" target="Ytkddh6fNgV7wzpWeuov-3">
          <mxGeometry width="50" height="50" relative="1" as="geometry">
            <mxPoint x="348" y="490" as="sourcePoint" />
            <mxPoint x="404.59000000000003" y="440" as="targetPoint" />
          </mxGeometry>
        </mxCell>
        <mxCell id="Ytkddh6fNgV7wzpWeuov-18" value="" style="endArrow=classic;html=1;rounded=0;" edge="1" parent="1" source="Ytkddh6fNgV7wzpWeuov-8" target="Ytkddh6fNgV7wzpWeuov-3">
          <mxGeometry width="50" height="50" relative="1" as="geometry">
            <mxPoint x="480" y="520" as="sourcePoint" />
            <mxPoint x="530" y="470" as="targetPoint" />
          </mxGeometry>
        </mxCell>
        <mxCell id="Ytkddh6fNgV7wzpWeuov-19" value="" style="endArrow=classic;html=1;rounded=0;" edge="1" parent="1" source="Ytkddh6fNgV7wzpWeuov-6" target="Ytkddh6fNgV7wzpWeuov-3">
          <mxGeometry width="50" height="50" relative="1" as="geometry">
            <mxPoint x="480" y="520" as="sourcePoint" />
            <mxPoint x="530" y="470" as="targetPoint" />
          </mxGeometry>
        </mxCell>
        <mxCell id="Ytkddh6fNgV7wzpWeuov-21" value="&lt;b&gt;Api Gateway&lt;/b&gt;" style="text;html=1;strokeColor=none;fillColor=none;align=center;verticalAlign=middle;whiteSpace=wrap;rounded=0;" vertex="1" parent="1">
          <mxGeometry x="318.25" y="260" width="60" height="30" as="geometry" />
        </mxCell>
        <mxCell id="Ytkddh6fNgV7wzpWeuov-22" value="&lt;b&gt;&lt;font style=&quot;font-size: 17px&quot;&gt;Azure&lt;/font&gt;&lt;/b&gt;" style="text;html=1;strokeColor=none;fillColor=none;align=center;verticalAlign=middle;whiteSpace=wrap;rounded=0;" vertex="1" parent="1">
          <mxGeometry x="1105.17" y="456.08" width="103.22" height="60" as="geometry" />
        </mxCell>
      </root>
    </mxGraphModel>
  </diagram>
</mxfile>
